<svg xmlns="http://www.w3.org/2000/svg" xmlns:xlink="http://www.w3.org/1999/xlink" width="100" zoomAndPan="magnify" viewBox="0 0 75 74.999997" height="100" preserveAspectRatio="xMidYMid meet" version="1.0"><defs><clipPath id="083dadc5ae"><path d="M 1.019531 1.019531 L 72.269531 1.019531 L 72.269531 72.269531 L 1.019531 72.269531 Z M 1.019531 1.019531 " clip-rule="nonzero"/></clipPath></defs><rect x="-7.5" width="90" fill="#ffffff" y="-7.5" height="89.999996" fill-opacity="1"/><rect x="-7.5" width="90" fill="#ffffff" y="-7.5" height="89.999996" fill-opacity="1"/><g clip-path="url(#083dadc5ae)"><path fill="#bfbdbc" d="M 72.269531 36.644531 C 72.269531 56.320312 56.320312 72.269531 36.644531 72.269531 C 16.96875 72.269531 1.019531 56.320312 1.019531 36.644531 C 1.019531 16.96875 16.96875 1.019531 36.644531 1.019531 C 56.320312 1.019531 72.269531 16.96875 72.269531 36.644531 " fill-opacity="1" fill-rule="nonzero"/></g><path fill="#ffffff" d="M 49.300781 25.382812 C 49.300781 32.398438 43.613281 38.082031 36.597656 38.082031 C 29.585938 38.082031 23.898438 32.398438 23.898438 25.382812 C 23.898438 18.367188 29.585938 12.683594 36.597656 12.683594 C 43.613281 12.683594 49.300781 18.367188 49.300781 25.382812 " fill-opacity="1" fill-rule="nonzero"/><path fill="#ffffff" d="M 36.597656 70.578125 C 45.585938 70.578125 53.792969 67.25 60.0625 61.757812 C 58.117188 49.054688 52.386719 40.238281 36.597656 40.238281 C 21.253906 40.238281 15.3125 49.089844 13.226562 61.839844 C 19.484375 67.28125 27.65625 70.578125 36.597656 70.578125 " fill-opacity="1" fill-rule="nonzero"/></svg>